<svg width="354" height="131" xmlns="http://www.w3.org/2000/svg" xmlns:xlink="http://www.w3.org/1999/xlink" xml:space="preserve" overflow="hidden"><defs><clipPath id="clip0"><rect x="2831" y="90" width="354" height="131"/></clipPath></defs><g clip-path="url(#clip0)" transform="translate(-2831 -90)"><path d="M2916.71 90.0001C2910.46 90.0001 2904.32 91.3123 2900 93.1381 2895.68 91.3123 2889.54 90.0001 2883.29 90.0001 2855.84 90.0001 2831 116.075 2831 151.848 2831 190.875 2862.77 221 2900 221 2937.23 221 2969 190.875 2969 151.848 2969 116.075 2944.16 90.0001 2916.71 90.0001M2900 111.225C2905.29 114.363 2912.28 123.549 2912.28 133.876 2912.28 141.464 2907.33 147.398 2900 147.398 2892.73 147.398 2887.72 141.464 2887.72 133.876 2887.72 123.549 2894.71 114.363 2900 111.225M2900 203.997C2871.52 203.997 2847.99 181.004 2847.99 151.506 2847.99 124.576 2867.32 106.204 2882.55 106.889 2875.33 114.078 2870.96 124.576 2870.96 134.732 2870.96 152.191 2884.77 164.458 2900 164.458 2915.23 164.458 2929.04 152.191 2929.04 134.732 2929.04 124.576 2924.67 114.078 2917.45 106.889 2932.68 106.204 2952.01 124.576 2952.01 151.506 2952.01 181.004 2928.48 203.997 2900 203.997" fill="#0072BC" fill-rule="evenodd"/><path d="M3060.19 119 3060.19 132.219 3052.81 132.219 3052.81 186 3037.5 186 3017.69 148.516 3017.69 172.781 3025.08 172.781 3025.08 186 2995 186 2995 172.781 3002.2 172.781 3002.2 132.219 2995 132.219 2995 119 3017.69 119 3037.5 156.665 3037.5 132.219 3030.12 132.219 3030.12 119 3060.19 119ZM3122.69 144.713 3122.69 119 3064.88 119 3064.88 144.713 3078.02 144.713 3078.02 132.219 3085.05 132.219 3085.05 172.781 3075.5 172.781 3075.5 186 3112.06 186 3112.06 172.781 3102.52 172.781 3102.52 132.219 3109.54 132.219 3109.54 144.713 3122.69 144.713ZM3185 144.713 3185 119 3127.19 119 3127.19 144.713 3140.34 144.713 3140.34 132.219 3147.36 132.219 3147.36 172.781 3137.81 172.781 3137.81 186 3174.37 186 3174.37 172.781 3164.83 172.781 3164.83 132.219 3171.85 132.219 3171.85 144.713 3185 144.713Z" fill-rule="evenodd"/></g></svg>
